# xmcd CD database file
#
# Track frame offsets:
#	183
#	16935
#	36843
#	60965
#	88763
#	106305
#	125423
#	147910
#	173008
#	191780
#	211130
#
# Disc length: 3108 seconds
#
# Revision: 0
# Processed by: cddbd v1.5.2PL0 Copyright (c) Steve Scherf et al.
# Submitted via: CDex 1.70beta2
#
DISCID=8f0c220b
DTITLE=Patrick Saussois quartet - Easy Living
DYEAR=1992
DGENRE=Jazz
TTITLE0=Too Marvelous For Words
TTITLE1=Mambo Inn
TTITLE2=I Concentrate On You
TTITLE3=Easy Living
TTITLE4=Just A Closer Walk With Thee
TTITLE5=I Hear A Rhapsody
TTITLE6=The Best Things In Life Are Free
TTITLE7=Polka Dots And Moonbeans
TTITLE8=J.B.Blues
TTITLE9=You And The Night And The Music
TTITLE10=That Lucky Old Sun
EXTD=YEAR: 1992
EXTT0=
EXTT1=
EXTT2=
EXTT3=
EXTT4=
EXTT5=
EXTT6=
EXTT7=
EXTT8=
EXTT9=
EXTT10=
PLAYORDER=
